<svg width="10" height="14" viewBox="0 0 10 14" fill="none" xmlns="http://www.w3.org/2000/svg">
<path fill-rule="evenodd" clip-rule="evenodd" d="M0.507159 6.65356C0.194937 6.38137 0.162487 5.90761 0.434681 5.59538L4.43468 1.00715C4.57711 0.84377 4.78326 0.749999 5.00001 0.749999C5.21676 0.749999 5.42291 0.84377 5.56534 1.00715L9.56534 5.59538C9.83754 5.90761 9.80509 6.38137 9.49286 6.65356C9.18064 6.92576 8.70688 6.89331 8.43468 6.58109L5.75001 3.50161L5.75001 12.5C5.75001 12.9142 5.41423 13.25 5.00001 13.25C4.5858 13.25 4.25001 12.9142 4.25001 12.5L4.25001 3.50161L1.56534 6.58109C1.29315 6.89331 0.819382 6.92576 0.507159 6.65356Z" fill="#A4AABB"/>
</svg>
