<svg width="21" height="22" viewBox="0 0 21 22" fill="none" xmlns="http://www.w3.org/2000/svg">
<path fill-rule="evenodd" clip-rule="evenodd" d="M2.10239 11.8333C2.55624 11.8333 2.91675 11.4538 2.91675 11C2.91675 7.95418 3.64778 6.0408 4.75656 4.88381C5.85011 3.74271 7.63612 3 10.5001 3C13.364 3 15.1501 3.74271 16.2436 4.88381C16.7377 5.39941 17.1568 6.06521 17.4696 6.91451C17.6302 7.35054 18.0292 7.66667 18.4938 7.66667C19.1456 7.66667 19.6352 7.06239 19.4252 6.44538C18.1897 2.81513 15.2146 1 10.5001 1C4.11119 1 0.916748 4.33333 0.916748 11C0.916748 11.466 1.30169 11.8333 1.7677 11.8333H2.10239ZM3.53054 15.0855C3.36994 14.6495 2.97099 14.3333 2.50632 14.3333C1.85456 14.3333 1.36495 14.9376 1.57495 15.5546C2.8105 19.1849 5.78554 21 10.5001 21C16.889 21 20.0834 17.6667 20.0834 11C20.0834 10.534 19.6985 10.1667 19.2325 10.1667H18.8978C18.4439 10.1667 18.0834 10.5462 18.0834 11C18.0834 14.0458 17.3524 15.9592 16.2436 17.1162C15.1501 18.2573 13.364 19 10.5001 19C7.63612 19 5.85011 18.2573 4.75656 17.1162C4.26245 16.6006 3.84335 15.9348 3.53054 15.0855Z" fill="#A4AABB"/>
<path d="M19.25 1.83398V6.83398H14.25" stroke="#A4AABB" stroke-width="2" stroke-linecap="round" stroke-linejoin="round"/>
<path d="M1.75 20.166L1.75 15.166L6.75 15.166" stroke="#A4AABB" stroke-width="2" stroke-linecap="round" stroke-linejoin="round"/>
</svg>
